<svg xmlns="http://www.w3.org/2000/svg" viewBox="0 0 900 1222" width="900" height="1222">
  <path d="m 858.06738,461.12635 -1.15159,-6.58676 -2.2073,-17.85973 9.02397,-7.76567 0.27723,-14.68296 -7.73715,-5.37439 -8.8469,-6.81599 -14.37035,-16.0573 -4.65869,-3.18097 -10.36261,-9.85479 -4.53916,1.4003 -2.365,-3.91865 4.69425,-6.86158 -2.53018,-9.43732 19.78346,-12.2556 2.99057,-12.38041 -2.5888,-8.74251 10.96523,-15.59166 -4.88501,-3.36005 -2.87093,-24.68502 -3.49401,-12.72829 v -7.89293 l -1.03234,-6.94018 -1.27144,-7.58102 -2.62557,-9.95349 -2.29538,-2.91463 -3.35,0.12402 1.48894,5.08502 -5.70731,1.24028 -1.79905,-1.11624 4.52867,-4.09282 0.43422,-4.1549 -3.84625,-1.42629 -2.41934,3.34869 -3.84614,-0.37206 -3.90838,0.86818 -5.21096,-3.10065 -3.90829,-0.5581 -4.83875,-2.10843 -3.47394,-3.47275 -2.23337,-0.37206 -3.34991,-6.2013 h -4.09442 l -1.48886,-2.35649 6.07952,-6.82139 5.58329,-3.22468 -5.33511,-4.71297 -5.21096,-5.95324 -6.20367,-6.4493 4.34251,-5.45714 0.74442,-5.70521 -8.685,-9.17789 -3.10174,-0.24801 -6.07954,4.46487 -6.69985,-0.12402 -5.08692,2.60456 2.35736,3.84479 -1.98516,0.86817 -3.8462,-4.46492 -1.86109,-4.09282 -2.72958,-1.73639 3.59807,-3.34871 -2.85364,-2.23246 -5.95544,3.47274 -0.12407,-3.59676 -4.34251,-7.3175 -4.46658,-1.11622 -4.09437,-3.47274 -3.59805,1.61234 -0.62038,-3.59673 -3.84621,-1.8604 v -4.58895 l -1.36477,-3.10064 1.73702,-4.71297 -0.99261,-2.35647 -3.22584,1.36426 -3.72216,-3.96883 1.98515,-5.33309 -1.61292,-1.61233 -5.21103,3.22465 -4.96288,1.98441 -1.9851,5.82923 -8.31283,3.9688 1.98514,-4.46492 -3.59805,-2.35645 -4.46657,2.23245 -1.11666,-1.11625 0.24813,-3.47269 -3.10178,0.62012 -7.8165,5.70514 -1.86107,0.12402 0.49629,-1.48829 0.99255,-3.34869 -3.34993,1.48834 -1.36478,6.32526 -5.211,-0.74416 -1.24072,2.23248 0.37223,3.8448 -4.46656,0.74413 -1.36479,2.72858 3.84622,3.72078 -1.24073,1.61231 -5.95541,-2.10843 v -4.09281 l -1.98517,-2.23244 3.10179,-3.2247 2.10921,-5.08506 1.8611,-3.84476 3.84619,-1.73638 2.60551,1.73638 4.83877,-1.48832 4.34253,-2.97664 2.72955,-1.36431 3.97032,0.74417 1.24068,-2.72856 h 3.59811 l 1.48884,2.97662 7.69244,-0.12402 1.36478,-0.99221 3.84624,0.86819 4.2184,-0.62014 -1.11663,-3.34866 -5.45914,-0.24806 -14.26825,-0.74415 -11.16642,-2.48053 h -3.1018 l -0.99257,-3.84478 h -2.48143 l -2.10918,4.34088 -2.23329,6.3253 -2.48144,1.98445 -2.35735,2.60453 -2.2333,4.837 -2.35736,5.3331 -5.7073,5.70517 -7.56835,2.97661 -5.33506,5.45716 -3.00142,3.63336 2.01784,3.06947 -3.77249,5.17424 -1.14051,-6.48972 -6.9308,0.5262 -11.93155,4.56033 -7.80813,0.52621 -5.87804,-1.92938 -6.05349,0.0878 -6.40442,7.54217 1.5792,3.59565 -4.91302,7.27907 -4.56207,1.31549 -1.66689,4.12187 -0.26321,3.06949 -3.15835,1.31547 0.52641,6.22668 -3.50928,2.54324 -4.1234,-2.01706 0.5264,-3.24489 -3.0706,0.17557 -2.19331,-2.5433 -5.26392,3.50798 -3.42155,-2.36788 v -6.66516 -5.08841,-2.89406 -10.26465,-1.1401 -6.06343,1.28377 -8.93312,4.83701 v 4.96103 l -2.85367,1.1162 -1.61293,-3.72074 3.34994,-5.33308 -1.98516,-3.22471 -7.81646,0.74417 -3.34993,-8.5578 1.737,-2.60452 4.21841,-4.96103 3.8462,1.86039 3.84622,-1.73636 5.6155,-6.32608 6.84308,-3.85876 6.14124,-4.20959 0.52638,-14.55809 -1.22824,-8.94533 5.08844,-2.63098 0.87732,-4.03422 -3.33379,-0.52618 -5.26391,4.385 -1.93011,-3.50799 -7.72041,0.52618 -10.35237,9.29613 -10.5278,1.40319 -7.19401,-9.29614 -16.31812,-6.48972 -3.3338,-4.20958 -6.49216,-3.3326 -4.03566,4.56037 -3.50928,-1.05236 -5.01957,6.42116 -3.10178,9.30192 -0.99257,-10.79025 4.83878,-3.59676 -2.48143,-4.4649 3.84624,-2.60455 -6.69989,-4.71295 -22.58102,4.4649 -2.48142,-3.59674 4.46657,-2.85258 8.31282,-3.47273 3.97027,-5.82918 0.72756,-9.66373 0.35093,-7.54215 -6.14124,-2.80639 2.63196,-3.3326 -0.17538,-7.89292 -4.91299,-6.66516 -1.93009,0.17538 -2.10557,4.38498 -3.15834,0.7016 -3.50927,-2.63096 -0.35093,-3.8588 -4.38659,-0.5262 -6.14124,-4.91115 -6.49214,-3.3326 -0.87732,-4.56038 -5.82846,3.2142 -5.49539,3.03302 -2.85066,-4.36042 -7.38856,4.08543 -11.31109,-1.74931 3.34269,-6.45762 -9.92539,-3.15758 -12.33637,-4.60396 -15.93499,-4.6824 -6.85085,-1.51601 -5.32925,-2.53475 -1.11665,6.20127 -4.21842,12.03048 3.10178,9.30195 1.42836,5.57871 -1.57917,2.10478 8.94865,6.84055 1.22825,5.43733 7.54494,9.12076 v 4.56035 l 4.56205,6.31436 4.21114,7.89294 -0.52637,5.26202 -4.5621,-0.87703 -5.43935,5.08655 -6.14124,2.10476 -2.80742,-1.40318 -10.70328,0.877 h -3.8602 l -1.5792,2.98179 5.26395,1.22778 1.22823,4.0342 -4.73752,-0.17538 -2.10557,1.05241 -2.63195,-3.68338 -2.28101,2.10477 1.40371,6.13895 6.6676,7.89296 2.45651,-5.26198 5.79029,1.05241 4.91299,0.52619 4.38658,-1.22779 7.54493,0.87698 -1.75462,4.20959 -4.56206,1.57861 -4.21114,-1.22778 -0.70183,0.87697 -0.17555,5.08657 -3.6847,5.78816 0.18817,2.4998 4.21843,7.81361 9.80166,-3.4727 0.62036,5.20908 3.59808,4.09285 -2.48143,11.90647 -3.9703,-3.10064 -8.93314,-3.34872 -2.35736,1.36429 3.47397,5.95327 4.21847,1.86032 0.49627,2.35649 -2.72958,1.98443 1.24072,5.2091 3.97029,3.84479 5.08695,0.37209 7.94055,3.59671 11.53867,0.24805 1.97932,3.35333 -1.57916,2.631 -6.84309,-3.15718 -10.17687,-0.35083 -4.56206,3.3326 h -8.77318 l -7.36948,-0.35077 -6.3167,-1.05243 -7.72041,-6.66514 1.93011,-3.68337 -6.66761,1.9294 -6.66764,6.48971 -3.50927,11.22554 -5.96574,11.75173 1.93008,13.15488 5.96577,12.10255 -3.149,0.3876 -3.22588,-3.84482 -6.4517,-2.35648 -5.58322,-4.83705 -3.97029,-5.58112 -5.21101,1.61233 -3.97028,3.47269 -0.86852,9.05387 2.35736,0.86822 5.211,-1.11624 0.37225,5.08507 -2.10922,6.82143 -5.7073,8.43373 -4.34251,-0.86818 -4.96288,-9.05388 h -3.34993 l -0.99254,3.72078 -1.98517,-1.48831 -0.86847,-5.95323 v -5.08506 h 2.48144 l 2.23325,1.24027 3.59806,-0.99224 -0.62035,-6.57335 -0.99255,-6.69739 -4.83877,-2.48051 -2.4468,-6.83306 0.43867,-9.47153 -9.38732,-0.87699 -12.42631,0.68618 -6.82394,0.62012 -3.1018,-1.11623 -7.32024,0.99223 -5.45913,1.98436 -4.21843,-0.12402 -2.48141,-2.48052 -11.53866,0.24806 -6.94801,-1.24024 -5.21773,1.8332 -5.96579,3.94649 -2.01783,3.33257 -5.96576,2.71866 -0.0879,2.7187 1.93011,3.59569 6.14123,0.2631 -0.78959,2.36786 -5.35164,4.47268 -3.68475,-1.84171 -2.71969,0.96472 -2.57398,4.89809 -0.74443,4.21686 -2.10925,4.21689 -0.49626,7.93764 1.61291,2.48053 v 4.58895 l 5.33509,-2.3565 4.21843,0.49611 2.23329,-2.35651 3.34996,4.2169 4.59065,1.48828 -0.24816,3.10066 -1.3648,9.30192 -2.97769,1.98441 1.36478,6.69739 -5.45915,7.8136 0.9013,15.11765 1.05277,4.91121 -4.91299,10.3485 -9.82596,12.9795 -3.8602,10.17315 -1.40371,21.04786 -3.15835,1.4032 -10.87876,-1.75399 -3.33381,-2.28019 -14.56346,-0.35081 -1.57919,8.94534 4.3866,3.50798 -1.75464,1.75397 -6.14122,0.17556 -0.5264,10.52392 7.36949,4.91119 5.79029,-0.52623 1.05279,4.03419 8.77318,0.52621 4.21112,-6.13897 2.63196,10.69933 4.21113,7.01593 -5.08846,9.29615 -0.70183,7.36675 4.21112,2.45555 -5.79032,4.2096 -3.50927,-2.28019 -2.45649,7.54213 -5.96577,0.35081 -3.68472,4.03418 -1.57917,2.98179 -9.47505,-0.3508 -2.28103,4.91117 -6.66758,4.20957 0.52636,2.63095 5.96574,2.2802 6.84311,6.48977 -6.49217,10.34852 -4.03565,3.1572 -5.61482,-5.08659 -19.47648,7.19136 -7.72039,-4.20959 v 6.13898 h -2.10557 l -6.3167,-6.66516 -8.77319,1.75399 -2.45649,-7.01597 -6.31669,-0.52618 v 3.15718 l 2.98289,2.98177 -0.5264,4.73576 -4.91299,-1.75397 -3.15833,-3.68339 -6.31669,5.26197 -7.19403,-2.28016 0.35092,2.45555 3.33383,6.66515 -3.15836,5.26196 1.40372,1.9294 3.50927,0.35078 4.03566,2.10482 -2.63195,5.96355 8.24681,6.84056 -4.91301,5.61275 6.3167,7.36674 4.38661,10.34854 0.35092,6.66516 -2.63197,11.22551 2.28105,4.56038 -5.43938,3.50797 -12.28247,13.3303 -1.93008,9.99772 3.50927,0.35081 6.66761,-2.98179 2.28103,1.57861 -3.33381,4.03418 -0.52641,1.75394 -8.94863,3.15719 -9.65052,6.84055 -1.05276,4.38501 -2.98289,-1.4032 -2.10556,-2.80642 -2.28102,0.35081 -1.22825,6.66517 2.45649,6.48973 h 7.54492 l 0.35094,5.61277 4.38659,5.26193 -0.52638,3.68341 -0.17537,6.66516 -5.2639,0.70158 1.22822,5.52504 -5.17615,0.43852 -0.96507,2.01709 4.47434,3.85877 -1.44313,4.67837 7.6823,-0.0333 5.17238,7.50572 0.2759,5.69432 5.71657,2.15636 -2.48194,7.73849 -3.95192,2.12277 1.78324,9.10061 12.95789,2.135 -0.0713,7.61228 -3.53309,6.99738 4.19328,8.102 -2.8408,4.31437 -4.68312,-3.64459 -4.55142,7.1288 -10.97217,4.51053 0.26162,8.10722 -5.77341,2.26941 -0.61453,7.46923 0.74442,10.17005 -0.99257,7.19351 2.72958,13.14673 6.69985,11.90651 6.94801,9.67395 3.97032,0.24814 5.45915,6.44926 5.70728,-1.24028 3.22586,1.98439 -2.23329,10.41826 0.49629,4.96091 -9.42943,5.70524 -1.73703,6.20134 -5.95542,3.7208 -1.24072,4.71296 0.99257,4.21687 -2.23329,4.21687 v 6.69729 l 2.18181,5.57599 10.43723,1.96029 11.49478,16.00901 -4.47945,3.81204 5.59905,8.17204 4.63586,3.36585 4.27981,15.76989 11.09486,2.9723 2.55568,-8.07116 15.02636,3.62282 3.17872,12.97296 5.2156,-4.25129 8.41465,5.89998 5.23596,-4.06372 7.38984,5.21651 7.29584,-9.54957 11.71411,0.54142 0.0762,8.82457 9.09238,7.26658 4.93079,5.53412 13.65063,-0.49882 1.70889,-2.22235 7.15588,7.5809 4.6155,-4.95007 15.69007,10.40278 15.02076,4.41247 -8.84847,10.2212 -4.26699,11.56904 -10.2146,8.22669 -4.75656,0.33109 -2.00376,7.07225 -15.32247,14.49453 -1.64329,13.1942 -6.14655,11.4451 -3.39234,11.8089 2.24796,7.7384 -7.02109,3.7469 -2.64724,12.4108 -10.37526,14.5666 -1.70378,9.5228 0.68669,12.4773 -8.0037,13.5233 -3.1863,22.7196 -4.28997,9.1388 6.88319,11.9619 7.81226,1.9213 -1.22823,4.2972 -3.68475,2.4558 3.5093,2.4555 11.05418,-2.8064 2.89517,-3.5959 8.33451,1.1403 2.1933,5.7881 5.87803,-1.6661 6.57991,1.4907 5.59041,0.5735 2.48143,-4.0926 9.9257,-3.969 7.32025,2.2324 5.45913,6.5735 6.82391,-0.8681 4.96288,1.6122 5.21101,-1.2402 -2.35736,-3.9688 7.56835,-2.2326 2.10987,0.4687 0.87731,5.8757 4.21115,-2.017 v -5.4374 l 3.50926,-0.9648 -0.35094,-3.5957 -4.64979,-1.3153 -4.56205,0.7892 -1.57917,2.5432 -7.28173,-0.7892 -4.6498,-5.1742 1.49144,-4.2097 3.33382,-2.1048 0.78959,-3.0694 3.07057,-0.877 3.07066,-3.3325 6.49214,0.088 0.2632,-3.5079 h 3.59701 l 2.01782,4.9109 2.63193,-3.245 3.42157,1.1403 0.52639,2.8941 3.77249,1.6664 v 2.4556 l -2.01784,1.7538 0.70183,2.8064 -5.70256,-0.4385 -0.96505,3.7712 7.28175,0.1748 5.17618,2.543 2.10555,-2.631 -2.5442,-3.508 2.63196,-2.5433 6.45598,5.081 -1.73701,1.9844 2.23327,3.4727 -0.99256,1.7365 h 5.21101 l 4.71472,-1.1163 4.71471,-4.341 -0.74442,-2.4804 -4.71474,-1.1162 1.11666,-2.6046 5.08694,0.6203 5.211,4.4647 3.5981,1.1162 3.97029,5.209 6.69985,1.4885 0.37222,-2.9767 -2.60551,-3.2247 v -5.0849 l -2.72956,-1.3644 -2.48145,-0.6201 -5.08693,-4.5889 -3.59807,-4.7131 0.99258,-1.7362 5.33506,4.0929 5.70729,4.2169 2.85366,0.992 4.46656,3.7209 0.3722,4.0928 5.21102,5.8292 5.21101,2.1084 5.58322,0.6201 4.59064,1.1164 8.18872,3.3486 3.59809,7.6896 2.10923,1.8603 h 4.21843 l 2.85363,3.3487 9.6776,5.5813 2.72955,-7.3175 2.85366,-2.7285 4.34248,2.4802 -0.74443,6.5733 4.09439,2.8529 11.16643,-0.1237 3.34992,7.6893 h 4.59064 l 5.83139,6.6976 -0.62037,3.8446 -2.35736,0.4961 2.35736,7.9378 6.69988,0.6199 3.3499,-3.9686 4.8388,1.1161 -4.34251,7.0696 0.12408,4.9608 -4.21841,2.3568 0.3722,3.3486 6.948,-0.6201 9.67758,-5.2093 7.8165,-10.5421 3.72215,-1.2402 0.62036,-3.845 3.97031,-2.6045 -0.12407,-7.1935 -4.59065,-3.2246 3.1018,-7.1934 -0.37221,-3.9689 2.48141,0.4961 -0.12405,4.2171 4.96285,2.1081 5.211,0.4963 2.35736,-5.5811 9.92573,2.1085 0.86854,2.6044 6.82391,0.9922 1.48883,4.7129 6.57581,-4.0928 4.21845,0.2481 2.2333,3.5969 -4.34254,3.5966 2.2333,1.7363 4.59064,-0.4962 5.33509,7.8137 v 5.3331 l 13.89599,1.8603 2.85365,-2.4804 8.68503,-3.2247 3.10182,0.9922 -3.10182,3.7207 1.61293,1.7364 5.95543,-1.4883 1.36478,-3.5966 3.22585,-1.6123 0.99256,-2.2327 7.5684,1.2404 0.37221,-2.6046 -3.59809,-1.7363 3.97031,-5.2092 15.75706,0.6203 1.73703,-4.0927 v -2.6049 l 3.10178,-3.7205 0.86848,-2.7285 4.96289,1.8603 11.91085,-0.1238 5.33507,2.3562 2.97773,-3.5966 16.25337,-3.9688 3.22588,1.9843 4.21844,-0.6199 1.36477,2.1085 8.43691,-1.2404 3.47396,2.9767 1.86107,-3.597 -4.83877,-11.5342 10.79421,-8.0615 -3.47399,7.6894 1.86107,3.2245 5.33507,-2.2323 5.58322,0.7443 1.737,1.7363 6.57579,-2.8525 1.48887,1.9843 -1.24071,2.6044 5.39711,5.3952 8.43686,0.062 3.97028,-6.015 12.81434,-0.7593 4.82522,2.1045 -1.75463,3.0695 5.17617,5.2621 -3.33381,4.7357 1.49146,5.4374 3.77245,0.5263 9.45349,9.886 3.16385,1.3023 3.03975,-0.4964 0.80646,1.9845 3.47399,-1.1781 2.10924,-7.9377 -1.24072,-3.4107 1.42683,-2.5426 -0.4963,-2.6044 5.64526,-5.3953 0.18609,-3.3487 -4.46655,-11.2862 -7.94058,2.2325 -6.45172,-3.5967 1.24068,-2.6047 2.97775,-2.6046 -0.24815,-5.0852 5.83136,-8.3097 -1.61292,-7.8134 -7.44432,-11.1622 -4.09433,-1.9845 -1.98514,-8.1858 -5.45916,-2.7285 -5.19658,-8.1106 0.70184,-5.4374 4.73751,-0.5261 3.68475,-2.2803 1.57916,-6.8403 10.87877,-4.0342 7.36947,-7.8931 14.38802,-5.0865 7.36948,1.9294 7.54493,-3.5079 11.05421,-11.9273 3.33381,-11.9271 -0.35091,-12.9794 6.66762,-1.4032 0.30864,-3.8172 2.35736,-0.3722 2.85367,4.0929 6.82392,0.2483 8.80909,8.1855 5.08694,-9.4259 3.22587,0.8681 4.09433,-7.8136 v -12.4025 l -3.72212,-1.6124 4.96289,-9.79791 -4.09442,-8.30991 -5.43938,-8.60421 h -5.79031 l -4.38662,-5.96354 -2.28102,-5.4374 -9.82595,-3.5079 -1.57917,2.63102 -10.87878,-6.48969 -1.05277,-8.06841 -11.05424,-10.69927 -7.54491,0.7015 -5.26393,-4.91127 v -5.43722 l -5.37557,-6.97064 -4.46658,-6.44925 -2.97772,-0.37205 -0.37221,-4.34091 -8.31278,-8.18569 -7.32023,1.48842 -9.05723,-3.59696 -4.46657,-8.55757 -7.44426,-3.84483 v -13.64278 l -5.21103,-1.3644 -2.9777,-13.76681 -3.95679,-1.25769 0.52641,-8.41918 -6.49215,-2.80621 -7.01855,-8.24379 2.45649,-2.98178 5.43936,-1.4032 0.35092,-7.5421 5.61487,-6.13892 2.80741,-7.19136 -7.19402,-4.20963 3.50926,-3.50797 -5.08844,-4.20961 -7.01855,-3.68331 -7.54491,-6.13899 -4.91302,-0.35081 1.05279,-5.26192 -4.38659,-2.98184 -3.8602,-5.78812 3.33382,-2.98183 -2.11001,-6.18465 -5.95546,-5.95321 -4.34249,-1.24029 0.86849,-2.23247 5.08695,-2.35642 -3.59808,-7.56563 8.43687,0.49618 1.48885,7.56555 4.71469,-0.12402 -0.24811,3.59667 3.10178,4.71303 -0.49628,6.69744 5.21102,1.36421 -0.4963,-8.92986 3.59809,-2.35646 0.24814,-6.07724 4.21844,-0.49607 v -3.72086 l 8.56092,-7.06943 4.09438,-5.8292 5.211,0.74421 6.07948,-4.0929 6.07951,3.47274 6.04556,-6.3416 6.84306,-2.45555 2.80745,4.56033 8.42224,3.50801 5.79032,-3.15722 1.22824,-10.52391 7.01855,0.5262 4.38658,-3.50796 3.50928,2.45557 4.21114,-0.52619 1.75463,-6.66521 4.3866,-6.31428 2.45648,2.28015 3.68476,-0.52619 -0.87734,-4.73577 6.3167,-3.68334 4.73751,4.73577 2.4565,-0.17537 7.19401,-6.84056 0.87733,-7.19137 3.50927,-3.15719 5.61481,0.35081 6.14131,-0.35081 8.42226,-2.63091 5.61474,1.40315 6.31681,-2.10484 -0.52641,-7.5421 5.61483,-0.35078 2.4565,-3.68342 9.2995,2.63096 15.44085,-10.17303 3.68477,-4.73581 3.50929,3.33262 9.2995,-4.7358 0.70189,-4.73576 -9.29961,-3.3326 v -3.33253 l -3.15825,-1.40322 1.40366,-8.94533 3.15836,-0.87699 9.65044,4.91116 4.91306,-1.92939 9.65054,4.03418 4.73739,6.13893 -3.15826,3.68339 0.35093,4.73577 6.31663,-1.92938 0.7614,1.91543 -0.86856,9.92205 5.95539,0.24807 4.59068,6.07722 4.96289,-1.36432 2.72952,-8.80575 6.01122,-11.13832 4.24004,-9.29064 5.11089,-15.40654 3.18812,-14.12563 3.56562,-3.76571 -0.84139,-7.24045 -7.06673,-7.80085 -1.12563,-11.48082 2.09495,-6.11344 -15.8477,-8.98033 -7.67535,-4.46821 -1.63415,-5.8052 6.01202,-5.4627 -1.7628,-11.45225 -7.50845,-9.40711 1.24637,-7.03553 -6.44665,-2.01179 -0.8392,-5.82566 10.50133,-9.19415 1.78286,-12.67692 5.31025,-12.07722 -6.50219,-6.47179 1.54647,-21.1259 z"/>
</svg>
